# File created by Blade
# Date/Time:  Thu Sep 25 14:26:36 2014
# Frame Rate: 120.000 fps
#------------------------------------------------------
:FULLY-SPECIFIED
:DEGREES
2093
root 25.316073 32.033578 -9.964833 377.531148 -60.105622 359.223261
Spine -2.069332 10.985197 0.018046
Head -8.671522 -18.801780 8.003827
LeftShoulder -12.197238 26.087361 14.276684
LeftArm 35.351574 39.729561 -54.969528
LeftForeArm 0.727852 -0.000000 87.538169
LeftHand -25.459713 0.000000 -20.430926
LeftHandThumb1 -26.253704 0.000000 33.147579
RightShoulder -17.697333 5.550731 -22.940586
RightArm 166.118163 -127.768229 266.732556
RightForeArm -7.537272 -0.000000 86.836692
RightHand -1.865441 -0.000000 25.790851
RightHandThumb1 -24.326973 -0.000000 -32.862282
LeftUpLeg -40.558736 2.536831 -4.526300
LeftLeg 12.643467 -0.000000 -0.000000
LeftFoot -8.625511 13.063130 -19.954676
LeftToeBase -7.463120 -0.000000 0.000000
RightUpLeg -14.407794 9.596074 1.444444
RightLeg 28.292515 -0.000000 -0.000000
RightFoot -26.981114 -6.963746 -3.550955
RightToeBase -8.791529 -0.000000 0.000000
2094
root 25.161949 32.014782 -9.863918 377.844516 -60.559413 359.008222
Spine -2.169029 11.109661 -0.011007
Head -8.515863 -18.718846 7.931311
LeftShoulder -12.351479 26.135720 14.109698
LeftArm 34.960579 39.284306 -55.362968
LeftForeArm 1.139408 -0.000000 87.447288
LeftHand -25.553683 0.000000 -20.045570
LeftHandThumb1 -26.253704 0.000000 33.147579
RightShoulder -17.621796 5.543217 -22.940397
RightArm 166.258849 -127.819330 266.480758
RightForeArm -7.589246 0.000000 86.672652
RightHand -1.827787 -0.000000 25.884831
RightHandThumb1 -24.326973 -0.000000 -32.862282
LeftUpLeg -40.362089 2.515630 -4.392741
LeftLeg 11.812627 -0.000000 -0.000000
LeftFoot -8.401234 13.084647 -19.960415
LeftToeBase -7.426851 -0.000000 0.000000
RightUpLeg -14.134728 9.601520 1.458244
RightLeg 28.088814 -0.000000 -0.000000
RightFoot -26.956491 -6.712534 -3.543086
RightToeBase -9.144242 -0.000000 0.000000
2095
root 24.996723 31.996545 -9.758460 378.154073 -60.992195 358.781656
Spine -2.286872 11.248897 -0.042140
Head -8.323954 -18.654262 7.828615
LeftShoulder -12.475931 26.250799 13.909070
LeftArm 34.629285 38.779677 -55.709615
LeftForeArm 1.643255 -0.000000 87.279467
LeftHand -25.515698 -0.000000 -19.534084
LeftHandThumb1 -26.253704 0.000000 33.147579
RightShoulder -17.592296 5.481757 -22.914121
RightArm 166.437276 -127.816882 266.211518
RightForeArm -7.797611 -0.000000 86.463895
RightHand -1.824505 0.000000 25.748913
RightHandThumb1 -24.326973 -0.000000 -32.862282
LeftUpLeg -40.089712 2.484654 -4.217286
LeftLeg 10.998749 -0.000000 -0.000000
LeftFoot -8.201310 13.132386 -19.557486
LeftToeBase -6.838128 -0.000000 0.000000
RightUpLeg -13.822512 9.506595 1.487083
RightLeg 27.909257 -0.000000 -0.000000
RightFoot -26.980128 -6.390631 -3.712715
RightToeBase -9.081811 -0.000000 0.000000
2096
root 24.832821 31.980009 -9.656774 378.537694 -61.525197 358.477254
Spine -2.373110 11.482245 -0.103856
Head -8.205472 -18.584977 7.761047
LeftShoulder -12.604625 26.284000 13.737654
LeftArm 34.226382 38.262568 -56.177979
LeftForeArm 2.188894 -0.000000 87.052427
LeftHand -25.647949 -0.000000 -19.073339
LeftHandThumb1 -26.253704 0.000000 33.147579
RightShoulder -17.554101 5.471268 -22.857557
RightArm 166.609235 -127.825927 265.945612
RightForeArm -8.156167 -0.000000 86.240231
RightHand -1.925864 0.000000 25.443406
RightHandThumb1 -24.326973 -0.000000 -32.862282
LeftUpLeg -39.819079 2.621556 -4.078659
LeftLeg 10.254112 -0.000000 -0.000000
LeftFoot -7.915195 12.986677 -19.218433
LeftToeBase -7.254129 -0.000000 0.000000
RightUpLeg -13.543014 9.621366 1.502373
RightLeg 27.738552 -0.000000 -0.000000
RightFoot -26.922845 -6.085388 -3.751675
RightToeBase -9.216547 -0.000000 0.000000
2097
root 24.665454 31.962774 -9.550825 378.883814 -61.970860 358.181938
Spine -2.428831 11.615063 -0.118591
Head -8.081020 -18.489313 7.696575
LeftShoulder -12.744969 26.254347 13.549285
LeftArm 33.807094 37.785455 -56.678619
LeftForeArm 2.754673 0.000000 86.740350
LeftHand -25.702480 -0.000000 -18.534033
LeftHandThumb1 -26.253704 0.000000 33.147579
RightShoulder -17.462347 5.532371 -22.859781
RightArm 166.641263 -127.886098 265.833195
RightForeArm -8.615307 -0.000000 85.947911
RightHand -1.922737 0.000000 24.882275
RightHandThumb1 -24.326973 -0.000000 -32.862282
LeftUpLeg -39.505719 2.718104 -3.942103
LeftLeg 9.599784 -0.000000 -0.000000
LeftFoot -7.601032 12.800534 -18.784345
LeftToeBase -7.478859 -0.000000 0.000000
RightUpLeg -13.197111 9.633339 1.531593
RightLeg 27.528349 -0.000000 -0.000000
RightFoot -26.834759 -5.723818 -3.721263
RightToeBase -9.560143 -0.000000 0.000000
2098
root 24.492746 31.944198 -9.443154 379.284091 -62.367718 357.825499
Spine -2.509354 11.767968 -0.095362
Head -7.929877 -18.412356 7.605461
LeftShoulder -12.751885 26.242524 13.410488
LeftArm 33.296273 37.245998 -57.322737
LeftForeArm 3.370223 0.000000 86.393605
LeftHand -25.837011 -0.000000 -17.898561
LeftHandThumb1 -26.253704 0.000000 33.147579
RightShoulder -17.420714 5.582173 -22.892518
RightArm 166.636250 -128.027638 265.768250
RightForeArm -8.929896 -0.000000 85.564177
RightHand -1.992395 -0.000000 24.503355
RightHandThumb1 -24.326973 -0.000000 -32.862282
LeftUpLeg -39.169479 2.705962 -3.687732
LeftLeg 9.052350 -0.000000 -0.000000
LeftFoot -7.387652 12.597729 -18.541726
LeftToeBase -7.951713 -0.000000 0.000000
RightUpLeg -12.851837 9.573410 1.604387
RightLeg 27.354433 -0.000000 -0.000000
RightFoot -26.788226 -5.418852 -3.883750
RightToeBase -9.557319 -0.000000 0.000000
